<svg width="32" height="32" viewBox="0 0 32 32" fill="none" xmlns="http://www.w3.org/2000/svg">
<g clip-path="url(#clip0_3245_5076)">
<rect width="32" height="32" rx="6" fill="#66B9DE"/>
<path d="M16.0557 8.125C17.6875 8.12498 18.9887 8.1246 20.0088 8.26172C21.0621 8.40333 21.928 8.7034 22.6123 9.3877C23.2966 10.072 23.5967 10.9379 23.7383 11.9912C23.8754 13.0113 23.875 14.3125 23.875 15.9443V16.0557C23.875 17.6875 23.8754 18.9887 23.7383 20.0088C23.5967 21.0621 23.2966 21.928 22.6123 22.6123C21.928 23.2966 21.0621 23.5967 20.0088 23.7383C18.9887 23.8754 17.6875 23.875 16.0557 23.875H15.9443C14.3125 23.875 13.0113 23.8754 11.9912 23.7383C10.9379 23.5967 10.072 23.2966 9.3877 22.6123C8.7034 21.928 8.40333 21.0621 8.26172 20.0088C8.1246 18.9887 8.12498 17.6875 8.125 16.0557V15.9443C8.12498 14.3125 8.1246 13.0113 8.26172 11.9912C8.40333 10.9379 8.7034 10.072 9.3877 9.3877C10.072 8.7034 10.9379 8.40333 11.9912 8.26172C13.0113 8.1246 14.3125 8.12498 15.9443 8.125H16.0557ZM19.3926 16.5674C18.3658 16.6158 17.394 17.0071 16.4492 17.6406C14.8139 18.7371 13.3582 20.4832 11.9297 22.2109C12.013 22.2254 12.1001 22.2387 12.1914 22.251C13.0998 22.3731 14.2997 22.375 16 22.375C17.7006 22.375 18.901 22.3731 19.8096 22.251C20.6965 22.1317 21.1926 21.9099 21.5518 21.5508C21.9108 21.1917 22.1327 20.6953 22.252 19.8086C22.3386 19.1639 22.3643 18.3723 22.3721 17.3594C21.2791 16.7446 20.293 16.525 19.3926 16.5674ZM12.625 11.125C11.7966 11.125 11.125 11.7966 11.125 12.625C11.125 13.4534 11.7966 14.125 12.625 14.125C13.4534 14.125 14.125 13.4534 14.125 12.625C14.125 11.7966 13.4534 11.125 12.625 11.125Z" fill="white"/>
</g>
<defs>
<clipPath id="clip0_3245_5076">
<rect width="32" height="32" rx="6" fill="white"/>
</clipPath>
</defs>
</svg>
